User Type,Username,Date,Text
,revavoom,2011-12-23T08:13Z,"Wrong info about avi file !!!!
Encoded black borders !!!!
display aspect 3:2 ????


------------------------------------------------------------------------------------------------------------------

General 
Complete name : C:\temp\flms\Santa Buddies (2009) NTSC .avi 
Format : AVI 
Format/Info : Audio Video Interleave 
File size : 849 MiB 
Duration : 1h 28mn 
Overall bit rate : 1 341 Kbps 

Video 
ID : 0 
Format : MPEG-4 Visual 
Format profile : Simple@L1 
Format settings, BVOP : No 
Format settings, QPel : No 
Format settings, GMC : No warppoints 
Format settings, Matrix : Default (H.263) 
Codec ID : DIVX 
Codec ID/Info : Project Mayo 
Codec ID/Hint : DivX 4 
Duration : 1h 28mn 
Bit rate : 1 200 Kbps 
Width : 720 pixels 
Height : 480 pixels 
Display aspect ratio : 3:2 
Frame rate : 23.976 fps 
Standard : NTSC 
Color space : YUV 
Chroma subsampling : 4:2:0 
Bit depth : 8 bits 
Scan type : Progressive 
Compression mode : Lossy 
Bits/(Pixel*Frame) : 0.145 
Stream size : 760 MiB (90%) 
Writing library : avc2.0.11.1110 

Audio 
ID : 1 
Format : MPEG Audio 
Format version : Version 1 
Format profile : Layer 3 
Mode : Joint stereo 
Mode extension : MS Stereo 
Codec ID : 55 
Codec ID/Hint : MP3 
Duration : 1h 28mn 
Bit rate mode : Constant 
Bit rate : 128 Kbps 
Channel(s) : 2 channels 
Sampling rate : 48.0 KHz 
Compression mode : Lossy 
Stream size : 81.0 MiB (10%) 
Alignment : Aligned on interleaves 
Interleave, duration : 24 ms (0.58 video frame) 
Writing library : LAME3.96.1 
"
